<svg width="126" height="39" viewBox="0 0 126 39" fill="none" xmlns="http://www.w3.org/2000/svg">
<g clip-path="url(#clip0_4617_7333)">
<path d="M59.8073 15.0805C59.8073 24.6725 56.449 26.6203 46.5147 26.6203H40.89V38.2467C40.89 38.8614 40.7576 39.0085 40.2117 39.0085H34.4546C33.9087 39.0085 33.7764 38.87 33.7764 38.2467V4.06004C33.7764 3.54062 33.9087 3.44539 34.4546 3.39345C38.4499 3.01254 42.8007 2.87402 46.523 2.87402C56.4572 2.87402 59.8155 5.58368 59.8155 15.0718M40.8983 9.37547V20.8634H45.7951C51.1965 20.8634 52.6027 20.1015 52.6027 15.2623C52.6027 10.423 51.1965 9.37547 45.7951 9.37547H40.8983Z" fill="white"/>
<path d="M76.3839 12.6913C76.8802 12.8298 77.1118 13.0203 77.1118 13.6436V17.5392C77.1118 18.0154 76.8389 18.2491 76.3426 18.2491H72.0744C69.717 18.2491 68.8981 18.63 68.8981 20.6731V38.2382C68.8981 38.7577 68.6747 39.0001 68.2198 39.0001H62.8184C62.3635 39.0001 62.1401 38.7663 62.1401 38.2382V18.8638C62.1401 12.8818 66.2263 12.1719 70.3539 12.1719C71.6691 12.1719 74.7958 12.3104 76.3839 12.6913Z" fill="white"/>
<path d="M101.836 25.469C101.836 36.2903 99.7014 38.9999 90.2635 38.9999C80.8255 38.9999 78.6997 36.2903 78.6997 25.469C78.6997 14.6476 80.8752 11.938 90.2635 11.938C99.6518 11.938 101.836 14.5957 101.836 25.469ZM85.4576 25.469C85.4576 31.451 86.1359 32.9227 90.2635 32.9227C94.391 32.9227 95.1189 31.451 95.1189 25.469C95.1189 19.4869 94.4407 18.0152 90.2635 18.0152C86.0863 18.0152 85.4576 19.4869 85.4576 25.469Z" fill="white"/>
<path d="M124.392 12.4055C124.889 12.4055 125.162 12.6393 125.162 13.1154V16.3445C125.162 16.7254 125.021 16.9591 124.847 17.2448L113.689 32.9141H124.988C125.484 32.9141 125.757 33.1478 125.757 33.6239V38.2295C125.757 38.7489 125.484 38.9913 124.988 38.9913H104.755C104.209 38.9913 103.937 38.7576 103.937 38.2295V35.1476C103.937 34.8186 104.028 34.5762 104.251 34.2472L115.773 18.3443H105.252C104.706 18.3443 104.482 18.1105 104.482 17.6344V13.1241C104.482 12.6479 104.706 12.4142 105.252 12.4142H124.392V12.4055Z" fill="white"/>
<path d="M14.5283 0.121088L23.7015 5.6616C24.264 5.99922 24.264 6.84761 23.7015 7.1939L14.5283 12.7344C13.9658 13.072 13.2627 12.6478 13.2627 11.9726V0.882908C13.2627 0.199001 13.9658 -0.225194 14.5283 0.121088Z" fill="white"/>
<path d="M11.228 25.9279H1.39303C0.929813 25.9279 0.549316 25.5297 0.549316 25.0449V14.7516C0.549316 13.9638 1.4592 13.5743 1.98858 14.1283L11.8236 24.4216C12.353 24.9756 11.9807 25.9279 11.228 25.9279Z" fill="#EF7D17"/>
<path d="M11.228 38.9999H1.39303C0.929813 38.9999 0.549316 38.6017 0.549316 38.1169V27.8237C0.549316 27.3389 0.929813 26.9407 1.39303 26.9407H11.228C11.6912 26.9407 12.0717 27.3389 12.0717 27.8237V38.1169C12.0717 38.6017 11.6912 38.9999 11.228 38.9999Z" fill="#EF7D17"/>
<path d="M6.30629 12.7778C2.95627 12.7778 0.243164 9.9296 0.243164 6.4235C0.243164 2.91739 2.95627 0.0778809 6.30629 0.0778809C9.65631 0.0778809 12.3694 2.91739 12.3694 6.4235C12.3694 9.9296 9.65631 12.7691 6.30629 12.7691" fill="#EF7D17"/>
<path d="M13.9411 25.9279C19.5989 25.4691 24.1153 20.7423 24.5537 14.8209C24.595 14.3102 24.198 13.8687 23.71 13.8687H13.875C13.4117 13.8687 13.0312 14.2669 13.0312 14.7517V25.0449C13.0312 25.5557 13.4531 25.9712 13.9411 25.9279Z" fill="#EF7D17"/>
</g>
<defs>
<clipPath id="clip0_4617_7333">
<rect width="125.514" height="39" fill="white" transform="translate(0.243164)"/>
</clipPath>
</defs>
</svg>
