<svg width="75" height="22" viewBox="0 0 75 22" fill="none" xmlns="http://www.w3.org/2000/svg">
<path d="M35.1561 8.50102C35.1561 13.9104 33.1747 15.009 27.3092 15.009H23.9915V21.5611C23.9915 21.9093 23.9106 21.9902 23.5894 21.9902H20.1883C19.867 21.9902 19.7886 21.9093 19.7886 21.5611V2.28979C19.7886 1.99553 19.867 1.94159 20.1883 1.91461C22.5448 1.70128 25.117 1.62036 27.3117 1.62036C33.1747 1.62036 35.1585 3.14558 35.1585 8.50102H35.1561ZM23.994 5.28874V11.7673H26.885C30.0728 11.7673 30.9016 11.3381 30.9016 8.60892C30.9016 5.93119 30.0728 5.28874 26.885 5.28874H23.994Z" fill="#593493"/>
<path d="M44.9425 7.15729C45.2368 7.23821 45.3716 7.34365 45.3716 7.69185V9.89876C45.3716 10.166 45.2098 10.2985 44.9155 10.2985H42.3997C41.0068 10.2985 40.5262 10.5143 40.5262 11.6643V21.5709C40.5262 21.8676 40.3914 22 40.1241 22H36.9363C36.669 22 36.5366 21.8676 36.5366 21.5709V10.6369C36.5366 7.26273 38.9446 6.86304 41.382 6.86304C42.1594 6.86304 44.0058 6.9415 44.9425 7.15729Z" fill="#593493"/>
<path d="M59.9645 14.3591C59.9645 20.4649 58.7066 21.9901 53.1378 21.9901C47.569 21.9901 46.3086 20.4649 46.3086 14.3591C46.3086 8.25331 47.596 6.72809 53.1378 6.72809C58.6796 6.72809 59.9645 8.22879 59.9645 14.3591ZM50.2982 14.3591C50.2982 17.7332 50.7004 18.5621 53.1378 18.5621C55.5752 18.5621 56.0019 17.7332 56.0019 14.3591C56.0019 10.985 55.5997 10.1562 53.1378 10.1562C50.6758 10.1562 50.2982 10.9752 50.2982 14.3591Z" fill="#593493"/>
<path d="M73.2794 6.99542C73.5737 6.99542 73.7355 7.13029 73.7355 7.39757V9.21951C73.7304 9.40493 73.664 9.58343 73.5467 9.72709L66.9603 18.5547H73.6276C73.9218 18.5547 74.0813 18.6896 74.0813 18.9569V21.5537C74.0813 21.8504 73.9218 21.9828 73.6276 21.9828H61.6857C61.3645 21.9828 61.1953 21.8504 61.1953 21.5537V19.8151C61.1967 19.6283 61.2635 19.4478 61.3841 19.3051L68.1839 10.3426H61.98C61.6588 10.3426 61.5239 10.2102 61.5239 9.94044V7.39757C61.5239 7.13029 61.6588 6.99542 61.98 6.99542H73.2794Z" fill="#593493"/>
<path d="M8.43295 0.0657362L13.8472 3.1922C13.9245 3.23442 13.989 3.29665 14.0339 3.37237C14.0788 3.44809 14.1025 3.53451 14.1025 3.62255C14.1025 3.71058 14.0788 3.79699 14.0339 3.87271C13.989 3.94844 13.9245 4.01067 13.8472 4.05289L8.43295 7.17935C8.35789 7.2227 8.27268 7.24538 8.186 7.24509C8.09933 7.24479 8.01428 7.22153 7.93952 7.17767C7.86476 7.13381 7.80296 7.07092 7.76041 6.99541C7.71787 6.91989 7.6961 6.83445 7.69731 6.74778V0.497305C7.6961 0.410638 7.71787 0.325197 7.76041 0.249683C7.80296 0.174169 7.86476 0.111279 7.93952 0.0674199C8.01428 0.0235607 8.09933 0.000299539 8.186 2.87302e-06C8.27268 -0.000293793 8.35789 0.0223897 8.43295 0.0657362Z" fill="#593493"/>
<path d="M6.48355 14.6216H0.676913C0.546844 14.6216 0.422095 14.5699 0.330122 14.4779C0.238149 14.3859 0.186487 14.2612 0.186487 14.1311V8.31959C0.182171 8.21915 0.20883 8.11981 0.262847 8.03503C0.316864 7.95024 0.395629 7.8841 0.488484 7.84556C0.581338 7.80703 0.683785 7.79796 0.781964 7.81959C0.880142 7.84122 0.969301 7.8925 1.03737 7.96649L6.84157 13.7707C6.91536 13.8386 6.96654 13.9275 6.98822 14.0255C7.00991 14.1234 7.00104 14.2256 6.96282 14.3183C6.92461 14.4111 6.85888 14.4899 6.7745 14.5441C6.69012 14.5983 6.59113 14.6253 6.4909 14.6216" fill="#FF7F00"/>
<path d="M6.48358 21.9902H0.676949C0.54688 21.9902 0.42213 21.9385 0.330158 21.8466C0.238185 21.7546 0.186523 21.6299 0.186523 21.4998V15.6858C0.186523 15.5557 0.238185 15.431 0.330158 15.339C0.42213 15.247 0.54688 15.1954 0.676949 15.1954H6.48358C6.61365 15.1954 6.73839 15.247 6.83036 15.339C6.92233 15.431 6.97401 15.5557 6.97401 15.6858V21.4924C6.97401 21.6225 6.92233 21.7472 6.83036 21.8392C6.73839 21.9312 6.61365 21.9829 6.48358 21.9829" fill="#FF7F00"/>
<path d="M3.58011 7.20141C2.87213 7.20141 2.18005 6.99151 1.59136 6.59823C1.00267 6.20495 0.543799 5.64596 0.272757 4.99192C0.00171534 4.33789 -0.0693279 3.61817 0.0686126 2.92376C0.206553 2.22936 0.547286 1.59145 1.04773 1.09066C1.54817 0.589877 2.18585 0.248705 2.88016 0.110289C3.57447 -0.0281267 4.29424 0.0424256 4.94846 0.313019C5.60268 0.583613 6.16199 1.0421 6.55567 1.63052C6.94936 2.21894 7.15974 2.91088 7.16022 3.61886C7.16022 4.08889 7.0676 4.55431 6.88765 4.98853C6.7077 5.42275 6.44396 5.81726 6.11148 6.14951C5.77901 6.48175 5.38431 6.74523 4.94997 6.92488C4.51562 7.10453 4.05014 7.19683 3.58011 7.19651" fill="#FF7F00"/>
<path d="M8.08482 14.6215C9.70381 14.4935 11.2241 13.7924 12.3725 12.644C13.5208 11.4956 14.222 9.97535 14.35 8.35636C14.3565 8.28815 14.3487 8.21933 14.327 8.15434C14.3052 8.08935 14.2701 8.02964 14.2239 7.97904C14.1777 7.92845 14.1214 7.8881 14.0587 7.86059C13.9959 7.83308 13.9281 7.81903 13.8596 7.81934H8.04805C7.91798 7.81934 7.79323 7.87101 7.70126 7.96298C7.60928 8.05496 7.55762 8.1797 7.55762 8.30977V14.1164C7.55734 14.1847 7.57133 14.2523 7.59869 14.3149C7.62605 14.3774 7.66617 14.4336 7.71649 14.4798C7.76681 14.5259 7.82623 14.5611 7.89093 14.583C7.95562 14.6048 8.02417 14.613 8.09218 14.6068" fill="#FF7F00"/>
</svg>
